<svg width="24" height="24" viewBox="0 0 24 24" fill="none" xmlns="http://www.w3.org/2000/svg">
  <path d="M6.5 5H12.1978C13.22 5 14.0872 5.15147 14.7995 5.45442C15.5117 5.75092 16.0459 6.16989 16.402 6.71133C16.7647 7.24632 16.946 7.87477 16.946 8.59669C16.946 9.12523 16.8339 9.59576 16.6097 10.0083C16.3921 10.4208 16.0887 10.7624 15.6996 11.0331C15.3171 11.2974 14.872 11.4843 14.3642 11.5939V11.7293C14.9116 11.7551 15.426 11.9098 15.9074 12.1934C16.3888 12.477 16.7746 12.8734 17.0647 13.3826C17.3549 13.8854 17.5 14.4719 17.5 15.1423C17.5 15.89 17.3121 16.5539 16.9362 17.134C16.5603 17.7141 15.9997 18.1717 15.2545 18.5069C14.5159 18.8356 13.6223 19 12.5737 19H6.5V5ZM11.9703 16.6119C12.5309 16.6119 12.9925 16.541 13.3552 16.3992C13.7245 16.2509 13.9949 16.0479 14.1664 15.7901C14.3378 15.5258 14.4236 15.2132 14.4236 14.8522C14.4236 14.4655 14.3279 14.1174 14.1367 13.808C13.9454 13.4986 13.6685 13.2634 13.3058 13.1022C12.9496 12.9346 12.5309 12.8508 12.0495 12.8508H9.46763V16.6119H11.9703ZM11.7527 10.8688C12.1682 10.8688 12.5408 10.7947 12.8705 10.6464C13.2068 10.4982 13.4673 10.2887 13.652 10.018C13.8432 9.74724 13.9388 9.42818 13.9388 9.06077C13.9388 8.71271 13.8564 8.41298 13.6915 8.1616C13.5267 7.90378 13.2827 7.70718 12.9595 7.57182C12.643 7.43002 12.2605 7.35912 11.8121 7.35912H9.46763V10.8688H11.7527Z" fill="currentColor"/>
</svg>