<svg width="13" height="12" viewBox="0 0 13 12" fill="none" xmlns="http://www.w3.org/2000/svg">
<rect x="1" y="0.5" width="11" height="11" rx="5.5" stroke="currentColor"/>
<path d="M7.25595 7.53888H5.7381L5.57738 2H7.42262L7.25595 7.53888ZM6.5 10C6.32143 10 6.15476 9.95816 6 9.87449C5.84524 9.78718 5.72222 9.6744 5.63095 9.53615C5.54365 9.39427 5.5 9.24147 5.5 9.07776C5.5 8.91769 5.54365 8.76853 5.63095 8.63029C5.72222 8.4884 5.84524 8.37744 6 8.29741C6.15476 8.21737 6.32143 8.17735 6.5 8.17735C6.6746 8.17735 6.8373 8.21737 6.9881 8.29741C7.14286 8.37744 7.26587 8.4884 7.35714 8.63029C7.45238 8.76853 7.5 8.91769 7.5 9.07776C7.5 9.24147 7.45238 9.39427 7.35714 9.53615C7.26587 9.6744 7.14286 9.78718 6.9881 9.87449C6.8373 9.95816 6.6746 10 6.5 10Z" fill="currentColor"/>
</svg>
