<svg width="13" height="12" viewBox="0 0 13 12" fill="none" xmlns="http://www.w3.org/2000/svg">
<g clip-path="url(#clip0_2007_4975)">
<path d="M12.1755 9.38649C11.1321 8.48649 10.407 7.76486 9.9297 7.25405C9.38954 6.67432 9.16385 6.35811 9.16385 6.35811C9.16385 6.35811 8.10572 5.04054 7.73575 4.22973C7.68765 4.12432 7.63955 4.03514 7.59145 3.95405C7.59145 3.95 7.58775 3.94595 7.58405 3.94189C7.26588 3.41892 6.944 3.41892 6.62582 3.41892C6.37793 3.41892 5.47519 3.5973 4.79073 3.5973C4.56875 3.5973 4.36896 3.57703 4.22097 3.52838C4.10998 3.49189 4.03598 3.38243 4.03598 3.25676V2.60811C4.03598 2.42568 4.03598 2.2027 3.7733 2.10541L3.48102 2C3.48102 2 3.40702 2.10541 3.29233 2.27162C3.24793 2.33649 3.19614 2.40541 3.14064 2.48649C3.13324 2.49865 3.12214 2.51081 3.11474 2.52297C3.06664 2.59595 3.01115 2.67297 2.95565 2.75405C2.94455 2.77027 2.93715 2.78243 2.92605 2.79865C2.86316 2.88784 2.80026 2.98108 2.73367 3.07838C2.71887 3.1027 2.70037 3.12703 2.68557 3.15135C2.62637 3.24054 2.56718 3.32973 2.50798 3.41892C2.49688 3.43514 2.48578 3.45135 2.47468 3.47162C2.40809 3.57297 2.33779 3.67838 2.27119 3.78378C2.2527 3.81216 2.2379 3.83649 2.2194 3.86081C2.1565 3.95811 2.09361 4.05541 2.03441 4.1527C2.02701 4.16081 2.02331 4.17297 2.01591 4.18514C1.95302 4.28649 1.89382 4.38784 1.83462 4.48108C1.81982 4.50541 1.80872 4.52973 1.79393 4.55C1.73843 4.6473 1.68293 4.74054 1.63484 4.82973C1.57934 4.93108 1.53494 5.04865 1.51644 5.16622C1.50904 5.20676 1.50534 5.2473 1.50164 5.28784C1.49794 5.32838 1.50164 5.36892 1.50164 5.41351C1.52014 5.63243 1.61264 5.86351 1.81612 6.07027V6.76757L2.1639 7.03108L2.73737 6.59324C2.80026 6.61351 2.85946 6.63378 2.92605 6.65C2.92605 6.65 3.06664 6.70676 3.29603 6.80405V7.57838L3.64381 7.84189L4.36896 7.28649C4.73894 7.46081 5.13851 7.65946 5.51589 7.86622C6.15595 8.21486 6.58882 8.49054 7.02169 8.75811L7.11419 9.7473L7.51376 9.90541L8.05022 9.34595C8.28331 9.46757 8.54599 9.59324 8.84937 9.73514L8.97517 10.5743L9.37844 10.7203L9.87791 10.1811C10.2035 10.3149 10.4699 10.4162 10.6919 10.4892V10.9108L11.0137 11L11.3097 10.6554C11.4836 10.6878 11.6205 10.6959 11.75 10.6959C11.8129 10.6959 11.8721 10.6959 11.935 10.6959C12.0978 10.6919 12.2606 10.6432 12.353 10.4973C12.5121 10.2541 12.6453 9.79189 12.1718 9.38243L12.1755 9.38649ZM3.61421 2.47432L3.65491 2.49054H3.66231C3.66231 2.51892 3.66231 2.57162 3.66231 2.60405V3.2527C3.66231 3.55676 3.83989 3.82027 4.10628 3.91351C4.28017 3.97432 4.50215 4.0027 4.78703 4.0027C5.23841 4.0027 5.77117 3.92973 6.15965 3.87703C6.35203 3.84865 6.55182 3.82432 6.62212 3.82432C6.75531 3.82432 6.8663 3.82432 6.96619 3.86486C6.8293 3.90541 6.74051 3.93378 6.74051 3.93378C6.74051 3.93378 4.52435 5.20676 3.47732 4.63514C3.03335 4.39189 3.15544 3.71892 3.26273 3.20405C3.28863 3.07838 3.30713 2.97703 3.32193 2.88784C3.43292 2.72568 3.53281 2.58378 3.60681 2.47432H3.61421ZM12.0571 10.2662C12.0571 10.2662 12.0164 10.2905 11.9276 10.2946C11.8684 10.2946 11.8129 10.2946 11.7537 10.2946C11.3985 10.2946 10.9767 10.2378 9.35254 9.52432C8.17972 9.00946 7.61735 8.66486 6.96619 8.26351C6.59622 8.03649 6.21144 7.80135 5.68238 7.50946C5.44189 7.37973 5.19771 7.25405 4.95722 7.13243C6.44823 7.22973 8.02433 7.25405 9.40804 7.25C9.87791 7.77703 10.6845 8.60811 11.9461 9.69865C12.0275 9.77162 12.2495 9.95811 12.0534 10.2581L12.0571 10.2662Z" fill="currentColor"/>
</g>
<defs>
<clipPath id="clip0_2007_4975">
<rect width="12" height="12" fill="currentColor" transform="translate(0.5)"/>
</clipPath>
</defs>
</svg>
