<svg width="24" height="24" viewBox="0 0 24 24" fill="none" xmlns="http://www.w3.org/2000/svg">
<path d="M19 20.5C19.5523 20.5 20 20.0523 20 19.5V9.97597C20 9.67484 19.8643 9.38975 19.6306 9.19986L12.6306 3.51236C12.2632 3.21384 11.7368 3.21384 11.3694 3.51236L4.36941 9.19986C4.1357 9.38975 4 9.67484 4 9.97597V19.5C4 20.0523 4.44772 20.5 5 20.5H9C9.55228 20.5 10 20.0523 10 19.5V15.5C10 14.9477 10.4477 14.5 11 14.5H13C13.5523 14.5 14 14.9477 14 15.5V19.5C14 20.0523 14.4477 20.5 15 20.5H19Z" stroke="#767676" stroke-width="1.5"/>
</svg>
