<svg width="20" height="10" viewBox="0 0 20 10" fill="none" xmlns="http://www.w3.org/2000/svg">
  <path d="M12.4545 1H14.9091C15.4463 1 15.9783 1.10346 16.4746 1.30448C16.9709 1.5055 17.4219 1.80014 17.8018 2.17157C18.1817 2.54301 18.483 2.98396 18.6886 3.46927C18.8942 3.95457 19 4.47471 19 5C19 5.52529 18.8942 6.04543 18.6886 6.53073C18.483 7.01604 18.1817 7.45699 17.8018 7.82843C17.4219 8.19986 16.9709 8.4945 16.4746 8.69552C15.9783 8.89654 15.4463 9 14.9091 9H12.4545M7.54545 9H5.09091C4.55368 9 4.02172 8.89654 3.52539 8.69552C3.02905 8.4945 2.57808 8.19986 2.1982 7.82843C1.43101 7.07828 1 6.06087 1 5C1 3.93913 1.43101 2.92172 2.1982 2.17157C2.96539 1.42143 4.00593 1 5.09091 1H7.54545" stroke="currentColor" strokeLinecap="round" strokeLinejoin="round" strokeWidth="1.5" />
  <path d="M6.72412 4.99985H13.2696" stroke="currentColor" strokeLinecap="round" strokeLinejoin="round" strokeWidth="1.5" />
</svg>