<svg xmlns="http://www.w3.org/2000/svg" width="91" height="12" viewBox="0 0 91 12" fill="none">
  <g clip-path="url(#clip0_681_7632)">
    <path d="M13.646 11.154H11.2397V3.6348L7.92192 11.1481H6.27517L2.96345 3.6348V11.1481H0.666504V0.845703H3.99646L7.15628 7.99464L10.3039 0.845703H13.6521V11.1481L13.646 11.154Z" fill="#100F0F"/>
    <path d="M22.4451 8.96814H17.7115L16.7696 11.1481H14.2539L18.8964 0.845703H21.3635L26.006 11.1481H23.387L22.4451 8.96814ZM18.5561 6.99725H21.5944L20.0813 3.25257L18.5561 6.99725Z" fill="#100F0F"/>
    <path d="M34.2698 2.87631H30.3869V11.1481H27.9806V2.87631H24.0977V0.845703H34.2759V2.87631H34.2698Z" fill="#100F0F"/>
    <path d="M34.2334 6.04713C34.2334 2.71454 36.5303 0.666016 40.1398 0.666016C41.6043 0.666016 42.856 1.00047 43.9802 1.71118L43.2692 3.62234C42.2362 3.01913 41.3247 2.75635 40.3221 2.75635C38.0738 2.75635 36.6823 4.01652 36.6823 6.01129C36.6823 8.00607 38.0859 9.23638 40.4133 9.23638C41.5374 9.23638 42.5401 8.9497 43.5427 8.34052L44.3326 10.2517C43.2996 10.9624 41.8838 11.3267 40.2614 11.3267C36.4696 11.3267 34.2334 9.32596 34.2334 6.03518V6.04713Z" fill="#100F0F"/>
    <path d="M55.1612 0.845703V11.1481H52.7548V6.97933H47.3892V11.1481H44.9829V0.845703H47.3892V4.9547H52.7548V0.845703H55.1612Z" fill="#100F0F"/>
    <path d="M70.4254 5.99987C70.4254 9.19509 68.3593 11.154 64.9808 11.154H60.0952V0.845703H64.9808C68.3593 0.845703 70.4254 2.79867 70.4254 5.99987ZM67.9765 5.99987C67.9765 3.99912 66.8037 2.87631 64.7377 2.87631H62.5015V9.11745H64.7377C66.8037 9.11745 67.9765 7.99464 67.9765 5.99389V5.99987Z" fill="#100F0F"/>
    <path d="M78.0516 8.96814H73.3179L72.376 11.1481H69.8604L74.5028 0.845703H76.9699L81.6124 11.1481H78.9934L78.0516 8.96814ZM74.1626 6.99725H77.2008L75.6878 3.25257L74.1626 6.99725Z" fill="#100F0F"/>
    <path d="M86.2549 6.53129V11.1539H83.8364V6.53129L79.4248 0.851562H82.4327L85.1125 4.35138L87.7801 0.851562H90.6664L86.2549 6.53129Z" fill="#100F0F"/>
  </g>
  <defs>
    <clipPath id="clip0_681_7632">
      <rect width="90" height="10.6667" fill="white" transform="translate(0.666504 0.666016)"/>
    </clipPath>
  </defs>
</svg>