<svg width="91" height="12" viewBox="0 0 91 12" fill="none" xmlns="http://www.w3.org/2000/svg">
<g clip-path="url(#clip0_597_3086)">
<path d="M13.6463 11.1543H11.24V3.63505L7.92217 11.1483H6.27542L2.96369 3.63505V11.1483H0.666748V0.845947H3.99671L7.15652 7.99488L10.3042 0.845947H13.6524V11.1483L13.6463 11.1543Z" fill="#100F0F"/>
<path d="M22.4451 8.96838H17.7115L16.7696 11.1483H14.2539L18.8964 0.845947H21.3635L26.006 11.1483H23.387L22.4451 8.96838ZM18.5561 6.9975H21.5944L20.0813 3.25282L18.5561 6.9975Z" fill="#100F0F"/>
<path d="M34.2703 2.87656H30.3874V11.1483H27.9811V2.87656H24.0981V0.845947H34.2764V2.87656H34.2703Z" fill="#100F0F"/>
<path d="M34.2336 6.04786C34.2336 2.71527 36.5306 0.666748 40.1401 0.666748C41.6045 0.666748 42.8563 1.0012 43.9805 1.71191L43.2695 3.62307C42.2365 3.01986 41.325 2.75708 40.3224 2.75708C38.074 2.75708 36.6825 4.01725 36.6825 6.01203C36.6825 8.0068 38.0862 9.23711 40.4135 9.23711C41.5377 9.23711 42.5403 8.95044 43.5429 8.34125L44.3329 10.2524C43.2999 10.9631 41.884 11.3274 40.2616 11.3274C36.4698 11.3274 34.2336 9.3267 34.2336 6.03592V6.04786Z" fill="#100F0F"/>
<path d="M55.1614 0.845947V11.1483H52.7551V6.97958H47.3895V11.1483H44.9832V0.845947H47.3895V4.95494H52.7551V0.845947H55.1614Z" fill="#100F0F"/>
<path d="M70.4259 6.00011C70.4259 9.19533 68.3598 11.1543 64.9813 11.1543H60.0957V0.845947H64.9813C68.3598 0.845947 70.4259 2.79891 70.4259 6.00011ZM67.977 6.00011C67.977 3.99936 66.8042 2.87656 64.7382 2.87656H62.502V9.11769H64.7382C66.8042 9.11769 67.977 7.99488 67.977 5.99414V6.00011Z" fill="#100F0F"/>
<path d="M78.0518 8.96838H73.3182L72.3763 11.1483H69.8606L74.5031 0.845947H76.9702L81.6127 11.1483H78.9937L78.0518 8.96838ZM74.1628 6.9975H77.2011L75.688 3.25282L74.1628 6.9975Z" fill="#100F0F"/>
<path d="M86.2551 6.53178V11.1544H83.8366V6.53178L79.425 0.852051H82.4329L85.1127 4.35186L87.7803 0.852051H90.6667L86.2551 6.53178Z" fill="#100F0F"/>
</g>
<defs>
<clipPath id="clip0_597_3086">
<rect width="90" height="10.6667" fill="white" transform="translate(0.666748 0.666748)"/>
</clipPath>
</defs>
</svg>
