<svg xmlns="http://www.w3.org/2000/svg" width="28" height="29" viewBox="0 0 28 29" fill="none">
  <g clip-path="url(#clip0_1116_5416)">
    <path d="M20.7823 0.5H7.21766C3.23146 0.5 0 3.73146 0 7.71766V21.2823C0 25.2685 3.23146 28.5 7.21766 28.5H20.7823C24.7685 28.5 28 25.2685 28 21.2823V7.71766C28 3.73146 24.7685 0.5 20.7823 0.5Z" fill="#0043FF"/>
    <path d="M14.0283 17.9536L17.1961 20.9427H21.9752L20.0111 8.05859H17.1961L14.0283 11.8218L10.7959 8.05859H8.00676L6.02441 20.9427H10.7959L14.0283 17.9536Z" fill="white"/>
    <path d="M18.6295 12.0405H18.4212L18.3877 15.3992L17.5627 15.0593L16.2328 14.511L14.2778 14.8357L11.5792 13.9233L9.66525 14.2768L9.70098 12.0405H9.50632L9.08887 16.0661L16.2556 14.854L17.0175 15.2015L14.0284 17.9587L14.6261 18.5244L17.0662 15.6364L18.8135 15.974L18.6288 12.0405H18.6295ZM9.79147 15.6007L9.65156 14.6183L11.5465 14.2639L13.671 14.9688L9.79071 15.6007H9.79147Z" fill="#100F0F"/>
  </g>
  <defs>
    <clipPath id="clip0_1116_5416">
      <rect width="28" height="28" fill="white" transform="translate(0 0.5)"/>
    </clipPath>
  </defs>
</svg>