<svg width="28" height="28" viewBox="0 0 28 28" fill="none" xmlns="http://www.w3.org/2000/svg">
<path d="M20.7823 0H7.21766C3.23146 0 0 3.23146 0 7.21766V20.7823C0 24.7685 3.23146 28 7.21766 28H20.7823C24.7685 28 28 24.7685 28 20.7823V7.21766C28 3.23146 24.7685 0 20.7823 0Z" fill="#0043FF"/>
<path d="M14.0286 17.4534L17.1964 20.4425H21.9754L20.0114 7.55835H17.1964L14.0286 11.3215L10.7961 7.55835H8.00701L6.02466 20.4425H10.7961L14.0286 17.4534Z" fill="white"/>
<path d="M18.6295 11.5405H18.4212L18.3877 14.8992L17.5627 14.5593L16.2328 14.011L14.2778 14.3357L11.5792 13.4233L9.66525 13.7768L9.70098 11.5405H9.50632L9.08887 15.5661L16.2556 14.354L17.0175 14.7015L14.0284 17.4587L14.6261 18.0244L17.0662 15.1364L18.8135 15.474L18.6288 11.5405H18.6295ZM9.79147 15.1007L9.65156 14.1183L11.5465 13.7639L13.671 14.4688L9.79071 15.1007H9.79147Z" fill="#100F0F"/>
</svg>
