<svg xmlns="http://www.w3.org/2000/svg" width="20" height="20" viewBox="0 0 20 20" fill="none">
  <path d="M18.8891 9.99997C18.8891 11.4844 18.5247 12.8889 17.8669 14.1244C17.0402 15.7244 15.7247 17.04 14.1247 17.8666C12.8891 18.5244 11.4847 18.8889 10.0002 18.8889C8.51577 18.8889 7.11133 18.5244 5.87577 17.8666C4.27577 17.04 2.96022 15.7244 2.13355 14.1244C1.47577 12.8889 1.11133 11.4844 1.11133 9.99997C1.11133 8.51553 1.47577 7.1022 2.13355 5.86664C2.96911 4.26664 4.27577 2.95997 5.87577 2.13331C7.11133 1.47553 8.51577 1.11108 10.0002 1.11108C11.4847 1.11108 12.8891 1.47553 14.1247 2.13331C15.7247 2.95997 17.0313 4.26664 17.8669 5.86664C18.5247 7.1022 18.8891 8.50664 18.8891 9.99997Z" stroke="currentColor" stroke-width="1.5" stroke-miterlimit="10"/>
  <path d="M4.48017 9.99973L2.13354 14.1241C1.47577 12.8886 1.11133 11.4842 1.11133 9.99973C1.11133 8.51531 1.47577 7.10199 2.13354 5.86646L4.48017 9.99973Z" stroke="currentColor" stroke-width="1.5" stroke-miterlimit="10"/>
  <path d="M14.1248 17.8664C12.8892 18.5242 11.4848 18.8886 10.0004 18.8886C8.51594 18.8886 7.11152 18.5242 5.87598 17.8664L10.0004 15.5198L14.1248 17.8664Z" stroke="currentColor" stroke-width="1.5" stroke-miterlimit="10"/>
  <path d="M14.1248 2.13329L10.0004 4.47993L5.87598 2.13329C7.11152 1.47552 8.51594 1.11108 10.0004 1.11108C11.4848 1.11108 12.8892 1.47552 14.1248 2.13329Z" stroke="currentColor" stroke-width="1.5" stroke-miterlimit="10"/>
  <path d="M18.8894 9.99973C18.8894 11.4842 18.5249 12.8886 17.8671 14.1241L15.5205 9.99973L17.8671 5.86646C18.5249 7.10199 18.8894 8.50642 18.8894 9.99973Z" stroke="currentColor" stroke-width="1.5" stroke-miterlimit="10"/>
  <path d="M10.0003 6.66675L6.66699 9.21772L7.94071 13.3334H12.0599L13.3337 9.21772L10.0003 6.66675Z" stroke="currentColor" stroke-width="1.5" stroke-miterlimit="10"/>
</svg>