<svg width="12" height="12" viewBox="0 0 12 12" fill="none" xmlns="http://www.w3.org/2000/svg">
<g id="soccer-ball">
<path id="Vector" d="M5.74927 1.00747C9.46094 0.8076 12.09 4.65794 10.5531 8.06615C8.98223 11.55 4.21223 12.0407 1.96191 8.94766C-0.379339 5.72951 1.81166 1.21941 5.74927 1.00747ZM3.55623 2.39582C3.58464 2.41382 4.11608 2.31628 4.20427 2.30717C4.37475 2.28939 4.54705 2.29691 4.71662 2.26956H5.21305L5.93861 2.33383C6.28298 2.13169 6.64121 1.94663 7.02354 1.82585C7.04286 1.81514 7.05468 1.81354 7.05241 1.78665C7.04468 1.70096 6.8392 1.47261 6.74759 1.44776C6.32026 1.33154 5.60152 1.38965 5.16305 1.46759C4.55569 1.57562 3.9756 1.82106 3.46008 2.15356L3.556 2.39605L3.55623 2.39582ZM9.19931 2.69277C8.6956 2.17544 8.03437 1.80784 7.34813 1.58997C7.38496 1.88009 7.57476 1.8769 7.78842 1.98469C8.03232 2.10776 8.2644 2.24905 8.49034 2.40197C8.54899 2.44163 8.85449 2.69254 8.87858 2.69254H9.19931V2.69277ZM5.69449 2.6595C4.96552 2.57016 4.21814 2.61688 3.50281 2.77869C3.10639 3.29146 2.71042 3.84525 2.4072 4.42001C2.36992 4.49066 2.25581 4.6903 2.24126 4.75115C2.22217 4.83091 2.36196 5.22517 2.3981 5.33046C2.58359 5.87104 2.83249 6.41161 3.16822 6.87402L5.03826 6.85556L6.56438 4.3407C6.5853 4.28623 6.50688 4.1659 6.47755 4.10733C6.23229 3.61781 5.93884 3.14971 5.69449 2.65927V2.6595ZM10.1549 6.67871L10.5661 6.66389C10.7023 5.69259 10.525 4.69599 10.0703 3.83203C9.99851 3.69552 9.72961 3.23426 9.61914 3.16338C9.56186 3.12669 9.17885 3.00795 9.1443 3.04237C9.19112 3.45965 9.10952 3.88103 9.07429 4.29649C9.56709 5.02007 9.94987 5.82318 10.1551 6.67893L10.1549 6.67871ZM8.88404 4.62649C8.30714 4.58888 7.73251 4.57133 7.1547 4.54991C7.06559 4.54672 6.90512 4.49157 6.8367 4.5604L5.33534 7.04289L6.17456 8.7307C6.84965 8.80499 7.54157 8.82847 8.21849 8.75805C8.36419 8.74278 8.61218 8.71999 8.74561 8.68011C8.79516 8.66529 8.81766 8.63703 8.85039 8.60125C9.08838 8.34236 9.37002 7.84395 9.53868 7.52694C9.59391 7.42325 9.84054 6.95515 9.83917 6.87629C9.83758 6.78058 9.75666 6.50756 9.72575 6.40158C9.54231 5.77122 9.22249 5.1837 8.88404 4.62671V4.62649ZM1.95736 5.08274C1.93713 5.06792 1.51298 5.18005 1.47661 5.20968C1.46388 5.21993 1.45592 5.22905 1.4532 5.24568C1.25999 6.40067 1.52866 7.59714 2.16466 8.56935C2.32764 8.64228 2.55699 8.67578 2.73315 8.64296C2.87454 8.61652 2.80316 8.54314 2.80089 8.43694C2.79703 8.26396 2.83067 8.09486 2.82021 7.92166L2.92682 7.1361C2.47516 6.52282 2.1758 5.81087 1.95736 5.08274ZM4.50204 9.90187C3.92742 9.71431 3.42803 9.35263 2.98455 8.95039L2.50858 8.99688C2.50039 9.02879 2.52176 9.03358 2.53585 9.05204C2.56722 9.09306 2.64132 9.17145 2.67996 9.21088C3.24686 9.79179 3.96651 10.2202 4.74481 10.4486C4.67389 10.2645 4.54773 10.1006 4.50227 9.90187H4.50204ZM8.65946 9.04087C7.81252 9.17898 6.94285 9.17533 6.09318 9.07004C5.69221 9.36198 5.30693 9.67739 4.87551 9.92466C4.92597 10.0707 5.21101 10.527 5.34489 10.573C5.40786 10.5947 5.61152 10.6109 5.68812 10.615C6.82988 10.6765 7.95959 10.3426 8.8529 9.63158L8.8654 9.59808C8.84176 9.51626 8.72515 9.05181 8.65946 9.04087Z" fill="currentColor"/>
</g>
</svg>
