<svg width="24" height="24" viewBox="0 0 20 20" fill="none" xmlns="http://www.w3.org/2000/svg">
<g clipPath="url(#clip0_team_icon)">
  <path d="M18.8889 10C18.8889 11.4844 18.5244 12.8889 17.8667 14.1244C17.04 15.7244 15.7244 17.04 14.1244 17.8667C12.8889 18.5244 11.4844 18.8889 10 18.8889C8.51556 18.8889 7.11111 18.5244 5.87556 17.8667C4.27556 17.04 2.96 15.7244 2.13333 14.1244C1.47556 12.8889 1.11111 11.4844 1.11111 10C1.11111 8.51556 1.47556 7.10222 2.13333 5.86667C2.96889 4.26667 4.27556 2.96 5.87556 2.13333C7.11111 1.47556 8.51556 1.11111 10 1.11111C11.4844 1.11111 12.8889 1.47556 14.1244 2.13333C15.7244 2.96 17.0311 4.26667 17.8667 5.86667C18.5244 7.10222 18.8889 8.50667 18.8889 10Z" stroke="currentColor" stroke-miterlimit="10" stroke-width="1.5"/>
  <g>
    <path d="M4.48023 9.99986L2.13359 14.1243C1.47582 12.8887 1.11138 11.4843 1.11138 9.99986C1.11138 8.51544 1.47582 7.10212 2.13359 5.86658L4.48023 9.99986Z" stroke="currentColor" stroke-miterlimit="10" stroke-width="1.5"/>
    <path d="M14.125 17.8665C12.8895 18.5242 11.485 18.8887 10.0006 18.8887C8.51619 18.8887 7.11176 18.5242 5.87622 17.8665L10.0006 15.5198L14.125 17.8665Z" stroke="currentColor" stroke-miterlimit="10" stroke-width="1.5"/>
    <path d="M14.125 2.13332L10.0006 4.47996L5.87622 2.13332C7.11176 1.47555 8.51619 1.11111 10.0006 1.11111C11.485 1.11111 12.8895 1.47555 14.125 2.13332Z" stroke="currentColor" stroke-miterlimit="10" stroke-width="1.5"/>
    <path d="M18.8892 9.99986C18.8892 11.4843 18.5247 12.8887 17.867 14.1243L15.5203 9.99986L17.867 5.86658C18.5247 7.10212 18.8892 8.50655 18.8892 9.99986Z" stroke="currentColor" stroke-miterlimit="10" stroke-width="1.5"/>
  </g>
  <path d="M10 6.66667L6.66667 9.21764L7.94038 13.3333H12.0596L13.3333 9.21764L10 6.66667Z" stroke="currentColor" stroke-miterlimit="10" stroke-width="1.5"/>
</g>
<defs>
  <clipPath id="clip0_team_icon">
    <rect fill="white" height="20" width="20"/>
  </clipPath>
</defs>
</svg>